<svg xmlns="http://www.w3.org/2000/svg" viewBox="0 -0.5 16 16" shape-rendering="crispEdges">
<metadata>Made with Pixels to Svg https://codepen.io/shshaw/pen/XbxvNj</metadata>
<path stroke="#000000" d="M5 0h4M10 0h2M4 1h2M7 1h1M11 1h2M4 2h1M11 2h1M13 2h1M3 3h1M13 3h1M3 4h1M12 4h1M3 5h1M6 5h6M3 6h3M12 6h1M3 7h1M13 7h1M3 8h1M7 8h1M10 8h1M13 8h1M3 9h1M13 9h1M3 10h1M13 10h1M4 11h1M12 11h1M5 12h1M9 12h3M5 13h1M10 13h1M5 14h1M10 14h1M4 15h3M9 15h4" />
<path stroke="#9c5a3c" d="M9 0h1M6 1h1M8 1h3M5 2h6M12 2h1M4 3h9M4 4h8M4 5h2M4 10h1M7 10h6M5 11h7M8 12h1" />
<path stroke="#f0d5be" d="M6 6h6M4 7h9M4 8h3M8 8h2M11 8h2M4 9h9M5 10h2M6 12h2M6 13h4M6 14h4M7 15h2" />
</svg>